<svg xmlns="http://www.w3.org/2000/svg" width="512" height="512" viewBox="0 0 512 512" fill="none">
  <defs>
    <linearGradient id="pd-grad" x1="60" y1="380" x2="452" y2="140" gradientUnits="userSpaceOnUse">
      <stop offset="0" stop-color="#1230A8" />
      <stop offset="0.55" stop-color="#1E5AE8" />
      <stop offset="1" stop-color="#2FA4F2" />
    </linearGradient>
  </defs>
  <path d="M118 190h64c8 0 14 6 14 14v104c0 8-6 14-14 14h-64c-17 0-30-13-30-30v-72c0-17 13-30 30-30z" fill="url(#pd-grad)" />
  <path d="M226 88h60c17 0 30 13 30 30v122c0 40-27 62-60 62s-60-22-60-62V118c0-17 13-30 30-30z" fill="url(#pd-grad)" />
  <circle cx="256" cy="238" r="34" fill="#fff" />
  <path d="M346 190h48c17 0 30 13 30 30v72c0 17-13 30-30 30h-44c-20 0-34 14-34 34v38c0 17-13 30-30 30h-60c-17 0-30-13-30-30v-52c0-8 6-14 14-14h32c50 0 74-30 74-78v-46c0-8 6-14 14-14h16z" fill="url(#pd-grad)" />
</svg>
